C:\Users\u0145647\OneDrive - KU Leuven\KU Leuven\BCN_Workshop\ParameterEstimation\Data_CP1\IPSA\JointAngles\JointAngles_segment_2.mot
version=1
nRows=94
nColumns=4
inDegrees=yes
endheader
                time	         pelvis_tilt	       hip_flexion_l	        knee_angle_l	
          2.93000000	         90.00000000	         90.00000000	       -101.97747766	
          2.93500000	         90.00000000	         90.00000000	       -101.88346416	
          2.94000000	         90.00000000	         90.00000000	       -101.78871855	
          2.94500000	         90.00000000	         90.00000000	       -101.69316973	
          2.95000000	         90.00000000	         90.00000000	       -101.59675374	
          2.95500000	         90.00000000	         90.00000000	       -101.49941320	
          2.96000000	         90.00000000	         90.00000000	       -101.40109717	
          2.96500000	         90.00000000	         90.00000000	       -101.30176467	
          2.97000000	         90.00000000	         90.00000000	       -101.20138560	
          2.97500000	         90.00000000	         90.00000000	       -101.09993914	
          2.98000000	         90.00000000	         90.00000000	       -100.99741132	
          2.98500000	         90.00000000	         90.00000000	       -100.89379710	
          2.99000000	         90.00000000	         90.00000000	       -100.78909887	
          2.99500000	         90.00000000	         90.00000000	       -100.68332477	
          3.00000000	         90.00000000	         90.00000000	       -100.57648806	
          3.00500000	         90.00000000	         90.00000000	       -100.46860415	
          3.01000000	         90.00000000	         90.00000000	       -100.35968833	
          3.01500000	         90.00000000	         90.00000000	       -100.24975232	
          3.02000000	         90.00000000	         90.00000000	       -100.13879874	
          3.02500000	         90.00000000	         90.00000000	       -100.02681830	
          3.03000000	         90.00000000	         90.00000000	        -99.91379201	
          3.03500000	         90.00000000	         90.00000000	        -99.79969379	
          3.04000000	         90.00000000	         90.00000000	        -99.68449219	
          3.04500000	         90.00000000	         90.00000000	        -99.56815715	
          3.05000000	         90.00000000	         90.00000000	        -99.45066567	
          3.05500000	         90.00000000	         90.00000000	        -99.33200266	
          3.06000000	         90.00000000	         90.00000000	        -99.21216211	
          3.06500000	         90.00000000	         90.00000000	        -99.09114751	
          3.07000000	         90.00000000	         90.00000000	        -98.96896922	
          3.07500000	         90.00000000	         90.00000000	        -98.84564108	
          3.08000000	         90.00000000	         90.00000000	        -98.72117762	
          3.08500000	         90.00000000	         90.00000000	        -98.59559402	
          3.09000000	         90.00000000	         90.00000000	        -98.46890702	
          3.09500000	         90.00000000	         90.00000000	        -98.34113763	
          3.10000000	         90.00000000	         90.00000000	        -98.21231308	
          3.10500000	         90.00000000	         90.00000000	        -98.08246509	
          3.11000000	         90.00000000	         90.00000000	        -97.95162967	
          3.11500000	         90.00000000	         90.00000000	        -97.81985041	
          3.12000000	         90.00000000	         90.00000000	        -97.68717704	
          3.12500000	         90.00000000	         90.00000000	        -97.55366039	
          3.13000000	         90.00000000	         90.00000000	        -97.41934774	
          3.13500000	         90.00000000	         90.00000000	        -97.28428184	
          3.14000000	         90.00000000	         90.00000000	        -97.14850120	
          3.14500000	         90.00000000	         90.00000000	        -97.01204116	
          3.15000000	         90.00000000	         90.00000000	        -96.87493606	
          3.15500000	         90.00000000	         90.00000000	        -96.73722063	
          3.16000000	         90.00000000	         90.00000000	        -96.59892921	
          3.16500000	         90.00000000	         90.00000000	        -96.46009476	
          3.17000000	         90.00000000	         90.00000000	        -96.32074847	
          3.17500000	         90.00000000	         90.00000000	        -96.18092046	
          3.18000000	         90.00000000	         90.00000000	        -96.04063869	
          3.18500000	         90.00000000	         90.00000000	        -95.89992490	
          3.19000000	         90.00000000	         90.00000000	        -95.75879491	
          3.19500000	         90.00000000	         90.00000000	        -95.61725962	
          3.20000000	         90.00000000	         90.00000000	        -95.47532433	
          3.20500000	         90.00000000	         90.00000000	        -95.33298698	
          3.21000000	         90.00000000	         90.00000000	        -95.19023705	
          3.21500000	         90.00000000	         90.00000000	        -95.04705455	
          3.22000000	         90.00000000	         90.00000000	        -94.90341110	
          3.22500000	         90.00000000	         90.00000000	        -94.75927215	
          3.23000000	         90.00000000	         90.00000000	        -94.61460230	
          3.23500000	         90.00000000	         90.00000000	        -94.46937270	
          3.24000000	         90.00000000	         90.00000000	        -94.32356651	
          3.24500000	         90.00000000	         90.00000000	        -94.17718176	
          3.25000000	         90.00000000	         90.00000000	        -94.03023092	
          3.25500000	         90.00000000	         90.00000000	        -93.88274046	
          3.26000000	         90.00000000	         90.00000000	        -93.73474821	
          3.26500000	         90.00000000	         90.00000000	        -93.58630354	
          3.27000000	         90.00000000	         90.00000000	        -93.43746587	
          3.27500000	         90.00000000	         90.00000000	        -93.28830223	
          3.28000000	         90.00000000	         90.00000000	        -93.13888300	
          3.28500000	         90.00000000	         90.00000000	        -92.98928309	
          3.29000000	         90.00000000	         90.00000000	        -92.83958098	
          3.29500000	         90.00000000	         90.00000000	        -92.68985691	
          3.30000000	         90.00000000	         90.00000000	        -92.54019094	
          3.30500000	         90.00000000	         90.00000000	        -92.39066005	
          3.31000000	         90.00000000	         90.00000000	        -92.24133508	
          3.31500000	         90.00000000	         90.00000000	        -92.09227737	
          3.32000000	         90.00000000	         90.00000000	        -91.94353449	
          3.32500000	         90.00000000	         90.00000000	        -91.79514109	
          3.33000000	         90.00000000	         90.00000000	        -91.64711935	
          3.33500000	         90.00000000	         90.00000000	        -91.49948262	
          3.34000000	         90.00000000	         90.00000000	        -91.35224013	
          3.34500000	         90.00000000	         90.00000000	        -91.20539770	
          3.35000000	         90.00000000	         90.00000000	        -91.05895962	
          3.35500000	         90.00000000	         90.00000000	        -90.91292913	
          3.36000000	         90.00000000	         90.00000000	        -90.76731957	
          3.36500000	         90.00000000	         90.00000000	        -90.62215557	
          3.37000000	         90.00000000	         90.00000000	        -90.47745825	
          3.37500000	         90.00000000	         90.00000000	        -90.33323749	
          3.38000000	         90.00000000	         90.00000000	        -90.18949229	
          3.38500000	         90.00000000	         90.00000000	        -90.04621390	
          3.39000000	         90.00000000	         90.00000000	        -89.90338677	
          3.39500000	         90.00000000	         90.00000000	        -89.76098753	
